<mxfile host="app.diagrams.net" modified="2023-04-25T14:10:38.416Z" agent="Mozilla/5.0 (Windows NT 10.0; Win64; x64) AppleWebKit/537.36 (KHTML, like Gecko) Chrome/111.0.0.0 Safari/537.36 OPR/97.0.0.0" etag="9t-2CQOETsieqx2dUQmH" version="21.2.1">
  <diagram name="PÃ¡gina-1" id="sD4t2cWrA4aCVgvibXGR">
    <mxGraphModel dx="1009" dy="542" grid="1" gridSize="10" guides="1" tooltips="1" connect="1" arrows="1" fold="1" page="1" pageScale="1" pageWidth="827" pageHeight="1169" math="0" shadow="0">
      <root>
        <mxCell id="0" />
        <mxCell id="1" parent="0" />
        <mxCell id="kOxXrr4pjlTqvBZ5SI2f-1" value="" style="rounded=0;whiteSpace=wrap;html=1;" parent="1" vertex="1">
          <mxGeometry x="294" y="70" width="120" height="80" as="geometry" />
        </mxCell>
        <mxCell id="kOxXrr4pjlTqvBZ5SI2f-2" value="" style="rounded=0;whiteSpace=wrap;html=1;" parent="1" vertex="1">
          <mxGeometry x="174" y="210" width="120" height="90" as="geometry" />
        </mxCell>
        <mxCell id="kOxXrr4pjlTqvBZ5SI2f-4" value="" style="rounded=0;whiteSpace=wrap;html=1;" parent="1" vertex="1">
          <mxGeometry x="414" y="210" width="120" height="90" as="geometry" />
        </mxCell>
        <mxCell id="kOxXrr4pjlTqvBZ5SI2f-5" value="" style="endArrow=none;html=1;rounded=0;" parent="1" edge="1">
          <mxGeometry width="50" height="50" relative="1" as="geometry">
            <mxPoint x="294" y="100" as="sourcePoint" />
            <mxPoint x="414" y="100" as="targetPoint" />
          </mxGeometry>
        </mxCell>
        <mxCell id="kOxXrr4pjlTqvBZ5SI2f-6" value="Facade" style="text;html=1;strokeColor=none;fillColor=none;align=center;verticalAlign=middle;whiteSpace=wrap;rounded=0;" parent="1" vertex="1">
          <mxGeometry x="324" y="70" width="60" height="30" as="geometry" />
        </mxCell>
        <mxCell id="kOxXrr4pjlTqvBZ5SI2f-7" value="" style="endArrow=none;html=1;rounded=0;entryX=1;entryY=0.333;entryDx=0;entryDy=0;entryPerimeter=0;" parent="1" target="kOxXrr4pjlTqvBZ5SI2f-4" edge="1">
          <mxGeometry width="50" height="50" relative="1" as="geometry">
            <mxPoint x="414" y="240" as="sourcePoint" />
            <mxPoint x="464" y="190" as="targetPoint" />
          </mxGeometry>
        </mxCell>
        <mxCell id="kOxXrr4pjlTqvBZ5SI2f-9" value="" style="endArrow=none;html=1;rounded=0;" parent="1" edge="1">
          <mxGeometry width="50" height="50" relative="1" as="geometry">
            <mxPoint x="174" y="240" as="sourcePoint" />
            <mxPoint x="294" y="240" as="targetPoint" />
            <Array as="points" />
          </mxGeometry>
        </mxCell>
        <mxCell id="kOxXrr4pjlTqvBZ5SI2f-10" value="Animais" style="text;html=1;strokeColor=none;fillColor=none;align=center;verticalAlign=middle;whiteSpace=wrap;rounded=0;" parent="1" vertex="1">
          <mxGeometry x="444" y="210" width="60" height="30" as="geometry" />
        </mxCell>
        <mxCell id="kOxXrr4pjlTqvBZ5SI2f-12" value="Estabulo" style="text;html=1;strokeColor=none;fillColor=none;align=center;verticalAlign=middle;whiteSpace=wrap;rounded=0;" parent="1" vertex="1">
          <mxGeometry x="204" y="210" width="60" height="30" as="geometry" />
        </mxCell>
        <mxCell id="kOxXrr4pjlTqvBZ5SI2f-13" value="+abrirPorteira()&lt;br&gt;+fecharPorteira()" style="text;html=1;strokeColor=none;fillColor=none;align=left;verticalAlign=middle;whiteSpace=wrap;rounded=0;" parent="1" vertex="1">
          <mxGeometry x="174" y="240" width="60" height="30" as="geometry" />
        </mxCell>
        <mxCell id="kOxXrr4pjlTqvBZ5SI2f-14" value="+Comer()&lt;br&gt;+Dormir()" style="text;html=1;strokeColor=none;fillColor=none;align=left;verticalAlign=middle;whiteSpace=wrap;rounded=0;" parent="1" vertex="1">
          <mxGeometry x="414" y="240" width="60" height="30" as="geometry" />
        </mxCell>
        <mxCell id="yZ0zoy5VJ8srOEhKqM4--4" value="" style="endArrow=classic;html=1;rounded=0;exitX=0.5;exitY=0;exitDx=0;exitDy=0;" edge="1" parent="1" source="kOxXrr4pjlTqvBZ5SI2f-12">
          <mxGeometry width="50" height="50" relative="1" as="geometry">
            <mxPoint x="310" y="200" as="sourcePoint" />
            <mxPoint x="360" y="150" as="targetPoint" />
            <Array as="points">
              <mxPoint x="234" y="180" />
              <mxPoint x="360" y="180" />
            </Array>
          </mxGeometry>
        </mxCell>
        <mxCell id="yZ0zoy5VJ8srOEhKqM4--5" value="" style="endArrow=none;html=1;rounded=0;" edge="1" parent="1">
          <mxGeometry width="50" height="50" relative="1" as="geometry">
            <mxPoint x="474" y="210" as="sourcePoint" />
            <mxPoint x="360" y="180" as="targetPoint" />
            <Array as="points">
              <mxPoint x="474" y="180" />
            </Array>
          </mxGeometry>
        </mxCell>
        <mxCell id="yZ0zoy5VJ8srOEhKqM4--6" value="+amanhecer()&lt;br&gt;+anoitecer()" style="text;html=1;strokeColor=none;fillColor=none;align=left;verticalAlign=middle;whiteSpace=wrap;rounded=0;" vertex="1" parent="1">
          <mxGeometry x="294" y="100" width="60" height="30" as="geometry" />
        </mxCell>
      </root>
    </mxGraphModel>
  </diagram>
</mxfile>
